<svg width="2000" height="2000" xmlns="http://www.w3.org/2000/svg" version="1.1">
 <g>
  <title>background</title>
  <rect fill="none" id="canvas_background" height="12503.440766" width="12503.440766" y="-1" x="-1"/>
 </g>

 <g>
  <title>Layer 1</title>
  <g id="svg_1" stroke="null">
   <g fill="#f25d9c" transform="matrix(3.2897383912570946,0,0,3.2897383912570946,-3.9556784000820926,-44.52170894450896) " featureKey="symbolFeature-0" id="SvgjsG2139" stroke="null">
    <metadata transform="translate(0,0.5889734625816345) translate(-1.1621094942092896,0) translate(8.511502265930176,11.551324844360352) " stroke="null" xmlns="http://www.w3.org/2000/svg">Created by potrace 1.14, written by Peter Selinger 2001-2017</metadata>
    <g id="svg_2" fill="#f25d9c" transform="translate(0,600) scale(0.10000000149011612,-0.10000000149011612) " stroke="null" xmlns="http://www.w3.org/2000/svg">
     <path id="svg_3" d="m3056.493926,5542.597021c-145,-21 -253,-50 -354,-95c-52,-23 -101,-41 -109,-41c-8,0 -49,8 -90,17c-109,25 -328,16 -467,-19c-189,-47 -375,-133 -559,-257c-457,-308 -820,-859 -875,-1330c-12,-103 -12,-104 -56,-149c-266,-269 -364,-809 -247,-1355c89,-417 370,-890 653,-1098c93,-68 99,-74 110,-122c6,-27 31,-91 56,-141c139,-287 454,-553 840,-709c464,-187 1056,-204 1443,-40l109,45l69,-17c105,-26 310,-24 443,6c410,90 815,361 1096,736c142,188 209,306 288,505c56,140 84,246 95,365c9,89 10,90 57,139c133,137 230,356 275,621c20,114 22,154 17,325c-7,284 -43,463 -142,716c-133,341 -338,630 -571,805c-60,45 -94,77 -94,89c0,33 -46,146 -91,226c-193,338 -651,640 -1126,744c-228,50 -563,65 -770,34zm405,-25c411,-45 835,-240 1103,-508c114,-114 227,-274 253,-358l7,-21l-63,20c-80,26 -265,35 -379,18c-237,-34 -482,-151 -672,-320c-72,-65 -167,-208 -208,-314c-55,-141 -72,-249 -66,-416c3,-80 9,-156 13,-169l7,-24l-184,6c-173,5 -401,35 -421,55c-4,4 10,41 31,82c178,341 274,771 242,1081c-26,246 -112,433 -190,414c-53,-13 -83,-39 -102,-88l-19,-48l34,-62c81,-145 122,-344 112,-542c-12,-239 -82,-530 -178,-737c-31,-67 -33,-70 -62,-64c-42,9 -177,68 -244,108c-72,43 -193,156 -247,233c-100,140 -150,282 -165,461c-19,248 36,504 154,705c46,77 126,174 175,208c27,20 28,20 127,-6c72,-18 117,-24 166,-21c37,2 70,6 73,9c6,7 -25,46 -96,120l-46,49l73,30c114,47 256,79 459,103c67,8 222,6 313,-4zm-1126,-245l38,-7l-74,-78c-56,-60 -87,-105 -129,-186c-103,-203 -143,-384 -133,-608c8,-189 28,-281 86,-400c101,-205 250,-350 472,-458c70,-34 127,-66 128,-72c1,-50 -332,-509 -352,-485c-2,3 -31,45 -63,94c-207,315 -478,567 -763,710c-205,103 -447,142 -482,77c-5,-10 -12,-37 -16,-60c-6,-37 -3,-45 29,-84l36,-44l103,-6c282,-17 542,-159 838,-457c74,-75 162,-174 195,-219l59,-84l-44,-39c-130,-114 -285,-192 -439,-224c-112,-22 -304,-15 -409,15c-338,98 -665,405 -761,715c-32,105 -31,110 57,206c47,52 87,107 101,139c25,58 23,68 -7,52c-12,-6 -38,-11 -60,-11c-22,0 -59,-7 -82,-15c-23,-8 -43,-15 -44,-15c-1,0 1,30 5,68c21,195 130,475 261,672c264,395 736,717 1150,785c157,25 233,30 300,19zm2433,-655l70,-24l33,-109c20,-68 45,-126 65,-154c36,-51 57,-63 57,-35c0,11 10,39 21,63c12,24 24,61 27,82c2,21 8,38 12,38c14,0 136,-99 186,-151c248,-261 399,-549 469,-894c81,-406 50,-747 -98,-1068c-34,-74 -94,-167 -107,-167c-3,0 -12,28 -19,61c-38,185 -214,425 -417,571c-86,61 -237,140 -354,184c-72,27 -82,28 -250,28c-162,0 -182,-2 -265,-28c-116,-35 -253,-103 -344,-172c-40,-30 -76,-54 -80,-54c-11,0 -96,147 -141,243c-42,91 -115,295 -109,301c2,3 65,9 139,15c314,26 546,86 790,204c198,96 367,230 455,360c49,72 48,115 -2,157c-34,28 -43,31 -86,25c-67,-8 -68,-9 -112,-82c-22,-37 -76,-103 -120,-148c-170,-173 -415,-295 -760,-380c-93,-23 -324,-58 -333,-50c-12,10 -32,178 -32,265c0,241 82,441 250,611c161,163 355,265 608,320c127,28 349,22 447,-12zm-4146,-1242c60,-231 282,-491 544,-636c208,-115 382,-154 580,-131c176,20 364,95 503,201c34,25 66,49 72,53c13,8 88,-112 143,-229c40,-86 119,-296 119,-315c0,-6 -28,-10 -63,-10c-95,0 -307,-27 -435,-56c-330,-74 -627,-226 -804,-413c-136,-143 -154,-205 -77,-261c34,-24 43,-26 81,-19c24,4 48,8 54,9c6,0 32,34 59,76c140,222 402,391 765,494c134,38 275,66 371,75l76,7l14,-68c20,-101 18,-332 -5,-414c-23,-84 -72,-190 -128,-277c-134,-206 -405,-374 -708,-439c-122,-26 -318,-24 -425,5c-43,12 -83,25 -87,29c-4,4 -22,54 -39,112c-31,104 -59,159 -98,194c-21,19 -21,19 -21,-5c0,-14 -5,-30 -11,-36c-6,-6 -20,-43 -32,-82l-22,-71l-80,64c-115,92 -256,256 -345,401c-112,182 -192,393 -237,623c-24,122 -27,161 -27,357c-1,194 2,234 23,335c24,121 73,265 124,365c30,61 88,148 94,142c1,-2 12,-38 22,-80zm2411,14c105,-22 219,-37 351,-46l86,-7l26,-97c34,-130 88,-272 154,-408l55,-111l-43,-39c-71,-64 -227,-252 -302,-363c-43,-65 -76,-105 -86,-104c-9,1 -61,13 -116,27c-135,35 -267,56 -406,64l-117,6l-22,86c-33,127 -95,291 -158,418l-55,112l91,96c103,108 208,239 277,349l47,74l61,-19c34,-10 105,-28 157,-38zm1639,-392c99,-25 279,-114 377,-187c144,-107 280,-265 352,-409c31,-61 72,-190 72,-226c0,-11 -33,-54 -74,-96c-66,-67 -126,-158 -126,-190c0,-13 51,-7 144,15c32,8 61,12 64,9c13,-13 -22,-188 -62,-309c-88,-266 -213,-473 -410,-674c-342,-351 -766,-552 -1157,-552c-116,0 -132,8 -89,43c128,108 251,353 291,577c18,105 16,334 -5,449c-38,216 -170,422 -359,562c-74,55 -214,132 -285,157l-33,11l16,32c65,124 191,305 297,423l43,48l61,-93c272,-416 672,-732 1022,-809c134,-30 209,-24 230,17c5,10 12,37 15,60c5,38 1,47 -31,83c-37,41 -37,41 -122,46c-197,10 -399,89 -593,230c-92,66 -236,196 -317,285c-83,91 -189,228 -190,245c0,11 96,91 173,143c95,64 227,114 349,131c88,12 256,2 347,-21zm-1681,-784c105,-13 262,-41 268,-48c1,-1 -25,-56 -57,-122c-69,-141 -138,-325 -168,-445c-75,-306 -79,-613 -11,-820c59,-175 104,-216 194,-174c27,13 38,28 54,69l19,53l-33,58c-147,259 -151,628 -13,1079c28,89 92,247 109,268c8,9 128,-31 200,-68c187,-95 319,-233 410,-429c64,-138 75,-196 75,-406c0,-169 -3,-195 -28,-294c-50,-200 -136,-362 -251,-475l-65,-65l-120,28c-91,22 -131,27 -170,21c-28,-4 -53,-10 -56,-15c-5,-8 39,-63 99,-123c21,-21 37,-40 35,-42c-17,-15 -141,-59 -237,-84c-174,-43 -287,-55 -490,-48c-205,6 -308,25 -511,93c-382,127 -686,344 -878,629c-45,66 -89,152 -82,159c2,3 36,-5 74,-16c57,-17 96,-21 210,-21c255,1 449,63 674,214c173,115 279,239 352,409c64,152 93,370 70,533c-6,44 -9,83 -5,88c8,14 196,11 332,-6z" stroke="null"/>
    </g>
   </g>
  </g>
 </g>
</svg>